#!OML:ASF X:\für Bonn\!DataBase\2005_08_10_Bjorn_Final\c3d\bjorn.ASF
:FULLY-SPECIFIED
:DEGREES
192
root -17.9316 19.0548 0.961857 1087.92 250.616 -6.56216
lowerback -3.14616 2.71008 -8.61142
upperback 8.58596 4.35428 -5.48697
thorax 10.8266 1.43891 -0.648277
lowerneck -0.950444 -8.46986 5.5943
upperneck 9.56693 -12.8265 8.78718
head 3.57984 -6.01945 1.48732
rclavicle 2.38542e-015 3.02153e-014
rhumerus -3.31586 39.3962 -51.707
rradius 88.343
rwrist -23.0984
rhand -0.641524 3.82747
rfingers 7.12502
rthumb 24.9758 -24.5601
lclavicle 2.38542e-015 3.02153e-014
lhumerus -19.1667 -7.02922 81.9447
lradius 24.2144
lwrist -21.1423
lhand -22.8522 -4.544
lfingers 7.12502
lthumb 3.5858 25.4056
rfemur -28.6264 5.8401 9.68714
rtibia 23.5545
rfoot 6.3522 30.9602
rtoes -5.6311
lfemur -0.988444 -10.5123 -19.0188
ltibia 21.162
lfoot -12.9205 -20.134
ltoes 5.50833
193
root -17.8503 19.0569 1.01874 1087.41 249.578 -6.06773
lowerback -3.04484 2.69744 -8.79109
upperback 8.66843 4.32837 -5.46734
thorax 10.8487 1.40134 -0.538807
lowerneck -0.871886 -8.5763 5.25729
upperneck 9.63285 -13.0165 9.15753
head 3.65159 -6.11642 1.65702
rclavicle 7.95139e-015 3.02153e-014
rhumerus -5.16475 41.0543 -54.7907
rradius 85.3272
rwrist -22.2915
rhand -0.344559 3.23992
rfingers 7.12502
rthumb 25.2603 -25.1078
lclavicle 7.95139e-015 3.02153e-014
lhumerus -18.7236 -8.04486 82.0857
lradius 23.475
lwrist -21.249
lhand -22.1087 -4.23497
lfingers 7.12502
lthumb 4.30377 25.7013
rfemur -28.8184 4.23978 10.3146
rtibia 23.4804
rfoot 5.93527 31.5014
rtoes -6.1328
lfemur -1.46098 -9.55508 -19.0226
ltibia 21.7198
lfoot -13.2473 -19.8661
ltoes 4.2227
194
root -17.7702 19.0608 1.07391 1086.92 248.568 -5.58694
lowerback -2.94982 2.68498 -8.91359
upperback 8.74433 4.29968 -5.46722
thorax 10.8724 1.36831 -0.48156
lowerneck -0.68733 -8.69439 4.97434
upperneck 9.59497 -13.2073 9.5545
head 3.66742 -6.22112 1.83457
rclavicle 3.26007e-014 -7.4743e-014
rhumerus -7.11172 42.3069 -58.1078
rradius 82.0811
rwrist -21.2728
rhand -0.370966 2.86417
rfingers 7.12502
rthumb 25.235 -25.4872
lclavicle 3.26007e-014 -7.4743e-014
lhumerus -18.2882 -9.0626 82.1884
lradius 22.7613
lwrist -21.3974
lhand -21.3697 -4.06311
lfingers 7.12502
lthumb 5.01741 25.8575
rfemur -28.9884 2.75123 10.9256
rtibia 23.5137
rfoot 5.10822 31.843
rtoes -6.50334
lfemur -1.9264 -8.54598 -18.9789
ltibia 22.2435
lfoot -13.4025 -19.7163
ltoes 3.44449
195
root -17.6912 19.0642 1.12481 1086.52 247.566 -5.19715
lowerback -2.88404 2.66654 -9.08393
upperback 8.83005 4.27042 -5.4605
thorax 10.9225 1.32887 -0.390525
lowerneck -0.559325 -8.79818 4.71861
upperneck 9.59079 -13.3921 9.95165
head 3.70572 -6.3193 2.0055
rclavicle 1.82882e-014 4.92986e-014
rhumerus -9.0051 43.1652 -61.4874
rradius 78.6348
rwrist -20.0241
rhand -0.589507 2.58191
rfingers 7.12502
rthumb 25.0256 -25.7988
lclavicle 1.82882e-014 4.92986e-014
lhumerus -17.8258 -9.91899 82.288
lradius 22.0424
lwrist -21.7047
lhand -20.604 -3.89852
lfingers 7.12502
lthumb 5.75669 26.0033
rfemur -29.1602 1.1964 11.5395
rtibia 23.6357
rfoot 4.08919 31.9214
rtoes -7.40565
lfemur -2.36935 -7.54736 -18.9367
ltibia 22.7263
lfoot -13.5366 -19.6009
ltoes 2.65566
196
root -17.6127 19.0696 1.17444 1086.13 246.554 -4.78842
lowerback -2.83755 2.64815 -9.23098
upperback 8.89656 4.24149 -5.43888
thorax 10.9624 1.29248 -0.294695
lowerneck -0.31231 -8.91045 4.50739
upperneck 9.46192 -13.555 10.2983
head 3.6699 -6.41711 2.16211
rclavicle -2.70347e-014 -1.59028e-015
rhumerus -10.8777 43.6145 -64.8995
rradius 75.0531
rwrist -18.6106
rhand -0.575277 2.24097
rfingers 7.12502
rthumb 25.0392 -26.1378
lclavicle -2.70347e-014 -1.59028e-015
lhumerus -17.3845 -10.6229 82.374
lradius 21.3288
lwrist -22.1108
lhand -19.7289 -3.91306
lfingers 7.12502
lthumb 6.6015 25.964
rfemur -29.3355 -0.156449 12.1117
rtibia 23.8239
rfoot 2.75529 31.581
rtoes -9.43783
lfemur -2.79511 -6.57282 -18.8603
ltibia 23.1471
lfoot -13.6303 -19.4649
ltoes 1.98091
197
root -17.5353 19.0769 1.22192 1085.72 245.541 -4.36463
lowerback -2.78284 2.62514 -9.35252
upperback 8.94619 4.20253 -5.41281
thorax 10.9796 1.25496 -0.208792
lowerneck -0.0405995 -8.9964 4.29272
upperneck 9.35431 -13.6857 10.6453
head 3.63751 -6.50007 2.32233
rclavicle 2.14687e-014 2.38542e-014
rhumerus -12.7074 43.5908 -68.3348
rradius 71.3721
rwrist -16.9945
rhand -0.251388 1.79757
rfingers 7.12502
rthumb 25.3496 -26.5376
lclavicle 2.14687e-014 2.38542e-014
lhumerus -16.9694 -11.1053 82.4407
lradius 20.6324
lwrist -22.733
lhand -18.8553 -3.95483
lfingers 7.12502
lthumb 7.44485 25.8942
rfemur -29.4911 -1.48448 12.7101
rtibia 24.0479
rfoot 2.09519 31.2483
rtoes -9.78233
lfemur -3.17697 -5.61896 -18.7579
ltibia 23.5043
lfoot -13.6735 -19.3179
ltoes 1.29509
198
root -17.4593 19.0855 1.268 1085.34 244.533 -3.97587
lowerback -2.74166 2.5954 -9.46919
upperback 8.99636 4.15623 -5.38923
thorax 11.0069 1.21395 -0.128598
lowerneck 0.313939 -9.07916 4.15306
upperneck 9.18105 -13.7916 10.9394
head 3.55549 -6.5769 2.45969
rclavicle -1.03368e-014 1.74931e-014
rhumerus -14.3843 43.0473 -71.7112
rradius 67.6071
rwrist -15.2474
rhand 0.308682 1.26591
rfingers 7.12502
rthumb 25.886 -26.992
lclavicle -1.03368e-014 1.74931e-014
lhumerus -16.6073 -11.5703 82.4681
lradius 20.0177
lwrist -23.4829
lhand -17.9106 -4.01919
lfingers 7.12502
lthumb 8.35666 25.7955
rfemur -29.6056 -2.75325 13.2849
rtibia 24.3034
rfoot 1.88281 31.0319
rtoes -9.58633
lfemur -3.48864 -4.76061 -18.6686
ltibia 23.7754
lfoot -13.6962 -19.0926
ltoes 0.752389
199
root -17.3838 19.0966 1.31328 1084.95 243.537 -3.58027
lowerback -2.70095 2.56558 -9.53732
upperback 9.04335 4.10665 -5.36967
thorax 11.034 1.17614 -0.0792936
lowerneck 0.705602 -9.15748 3.99513
upperneck 8.9495 -13.883 11.2623
head 3.45066 -6.65163 2.61369
rclavicle 5.56597e-014 -1.43125e-014
rhumerus -15.8694 42.0587 -74.8545
rradius 63.8058
rwrist -13.3799
rhand 0.927848 0.869841
rfingers 7.12502
rthumb 26.4788 -27.3002
lclavicle 5.56597e-014 -1.43125e-014
lhumerus -16.2751 -11.9322 82.4586
lradius 19.4899
lwrist -24.4017
lhand -16.91 -4.13944
lfingers 7.12502
lthumb 9.32221 25.6344
rfemur -29.6528 -3.69197 13.7576
rtibia 24.5824
rfoot 1.41697 30.5611
rtoes -10.2874
lfemur -3.76273 -3.98599 -18.5569
ltibia 23.9689
lfoot -13.6258 -18.8382
ltoes 0.357625
